<svg width="112" height="36" viewBox="0 0 112 36" fill="none" xmlns="http://www.w3.org/2000/svg">
<path d="M102.582 0.000117H8.88082C8.53926 0.000117 8.20181 0.000117 7.86116 0.00191699C7.57601 0.00371699 7.29312 0.00894597 7.00523 0.013347C6.37979 0.0204586 5.75583 0.0736254 5.13875 0.172385C4.52255 0.273295 3.92564 0.46354 3.36823 0.736684C2.8115 1.01214 2.3028 1.37006 1.86058 1.79747C1.41604 2.22368 1.04549 2.71632 0.763161 3.25645C0.480056 3.7955 0.283749 4.37315 0.181022 4.96943C0.0773183 5.56497 0.0215144 6.16737 0.0141111 6.77123C0.00546745 7.04717 0.00455466 7.32402 0 7.6V28.4028C0.00455466 28.6822 0.00546745 28.9529 0.0141111 29.2325C0.0215166 29.8363 0.0773206 30.4387 0.181022 31.0342C0.283465 31.6308 0.479783 32.2088 0.763161 32.748C1.04536 33.2864 1.41597 33.7771 1.86058 34.2009C2.30112 34.6302 2.81015 34.9884 3.36823 35.2617C3.92564 35.5356 4.52248 35.727 5.13875 35.8294C5.75593 35.9274 6.37983 35.9806 7.00523 35.9886C7.29312 35.9947 7.57601 35.9982 7.86116 35.9982C8.2018 36 8.53928 36 8.88082 36H102.582C102.917 36 103.257 36 103.592 35.9982C103.875 35.9982 104.167 35.9947 104.45 35.9886C105.075 35.981 105.697 35.9278 106.313 35.8294C106.931 35.7263 107.53 35.5349 108.091 35.2617C108.648 34.9882 109.157 34.6301 109.597 34.2009C110.04 33.7754 110.412 33.2851 110.697 32.748C110.979 32.2084 111.173 31.6305 111.274 31.0342C111.378 30.4386 111.436 29.8364 111.447 29.2325C111.451 28.9529 111.451 28.6822 111.451 28.4028C111.458 28.0758 111.458 27.7506 111.458 27.4183V8.58261C111.458 8.25302 111.458 7.92607 111.451 7.6C111.451 7.32402 111.451 7.04717 111.447 6.77119C111.436 6.16728 111.378 5.56501 111.274 4.9694C111.173 4.37346 110.978 3.79586 110.697 3.25641C110.122 2.17379 109.211 1.29254 108.091 0.736603C107.53 0.464126 106.931 0.273932 106.313 0.172304C105.697 0.0731093 105.075 0.0199239 104.45 0.013221C104.167 0.00882897 103.875 0.00355499 103.592 0.00179999C103.257 0 102.917 0.000117 102.582 0.000117Z" fill="black"/>
<path d="M7.86555 35.213C7.58177 35.213 7.30484 35.2095 7.02328 35.2033C6.44 35.196 5.85809 35.1469 5.28232 35.0566C4.74544 34.9672 4.22534 34.801 3.73919 34.5634C3.2575 34.3279 2.81816 34.0189 2.438 33.6485C2.05233 33.2825 1.73125 32.8579 1.48747 32.3917C1.241 31.9224 1.07044 31.4194 0.981706 30.9002C0.885885 30.3423 0.834043 29.7782 0.826624 29.2127C0.820719 29.0229 0.812988 28.3909 0.812988 28.3909V7.60047C0.812988 7.60047 0.821222 6.9782 0.826671 6.79539C0.833774 6.2308 0.885315 5.66756 0.980849 5.11053C1.06974 4.5899 1.24044 4.08545 1.48704 3.61464C1.72992 3.14873 2.04922 2.72385 2.43256 2.35649C2.81548 1.98564 3.25622 1.67513 3.73874 1.43627C4.22377 1.19947 4.74288 1.03444 5.27868 0.946728C5.85634 0.855438 6.44027 0.806082 7.02557 0.799075L7.86601 0.788086H103.587L104.437 0.799516C105.017 0.806175 105.596 0.855091 106.168 0.945846C106.71 1.03466 107.234 1.20084 107.725 1.43891C108.691 1.92027 109.478 2.68183 109.974 3.61684C110.217 4.0844 110.385 4.58473 110.473 5.10086C110.569 5.66246 110.623 6.23013 110.634 6.79935C110.637 7.05423 110.637 7.328 110.637 7.60047C110.645 7.93797 110.645 8.2592 110.645 8.58308V27.4188C110.645 27.7458 110.645 28.0648 110.637 28.3865C110.637 28.6792 110.637 28.9473 110.634 29.2232C110.623 29.7823 110.569 30.3398 110.474 30.8914C110.387 31.4143 110.218 31.9212 109.971 32.3944C109.726 32.8555 109.407 33.2764 109.025 33.6415C108.645 34.0139 108.205 34.3246 107.722 34.5617C107.233 34.8011 106.709 34.9679 106.168 35.0566C105.593 35.1474 105.011 35.1965 104.427 35.2033C104.155 35.2095 103.869 35.213 103.592 35.213L102.582 35.2148L7.86555 35.213Z" fill="white"/>
<path d="M23.2826 17.9004C23.293 17.1192 23.5078 16.3533 23.9068 15.6739C24.3059 14.9944 24.8764 14.4236 25.5651 14.0144C25.1276 13.4106 24.5504 12.9137 23.8793 12.5632C23.2082 12.2126 22.4618 12.0181 21.6994 11.9951C20.0729 11.8301 18.4961 12.9355 17.6672 12.9355C16.8224 12.9355 15.5463 12.0114 14.1721 12.0388C13.2833 12.0665 12.417 12.3162 11.6578 12.7637C10.8985 13.2111 10.2722 13.8409 9.83971 14.5918C7.96652 17.7256 9.36375 22.3312 11.1581 24.8643C12.0559 26.1047 13.1052 27.4903 14.4781 27.4412C15.8216 27.3873 16.3233 26.6134 17.945 26.6134C19.5517 26.6134 20.0224 27.4412 21.4232 27.4099C22.8648 27.3873 23.7731 26.164 24.6394 24.9119C25.2845 24.028 25.7808 23.0512 26.1101 22.0176C25.2726 21.6753 24.5579 21.1023 24.055 20.3702C23.5522 19.638 23.2836 18.7791 23.2826 17.9004Z" fill="black"/>
<path d="M20.6367 10.3289C21.4228 9.41714 21.81 8.24522 21.7163 7.06201C20.5154 7.18388 19.4061 7.73846 18.6094 8.61524C18.2199 9.04358 17.9216 9.54189 17.7315 10.0817C17.5415 10.6215 17.4633 11.1922 17.5017 11.7612C18.1023 11.7672 18.6965 11.6414 19.2396 11.3933C19.7826 11.1452 20.2603 10.7812 20.6367 10.3289Z" fill="black"/>
<path d="M39.4011 24.4251H34.9923L33.9336 27.4459H32.0662L36.2421 16.2698H38.1823L42.3582 27.4459H40.459L39.4011 24.4251ZM35.4489 23.0312H38.9436L37.2209 18.1287H37.1726L35.4489 23.0312Z" fill="black"/>
<path d="M51.3768 23.3735C51.3768 25.9056 49.9743 27.5325 47.8576 27.5325C47.3215 27.5596 46.7882 27.4402 46.319 27.1881C45.8497 26.936 45.4634 26.5613 45.2044 26.1069H45.1643V30.1428H43.4333V19.2989H45.1088V20.6542H45.1407C45.4117 20.202 45.8045 19.8292 46.2773 19.5755C46.7501 19.3219 47.2852 19.1968 47.8258 19.2137C49.9661 19.2137 51.3768 20.8484 51.3768 23.3735ZM49.5977 23.3735C49.5977 21.7238 48.7154 20.6392 47.3692 20.6392C46.0466 20.6392 45.157 21.7467 45.157 23.3735C45.157 25.0153 46.0466 26.1148 47.3692 26.1148C48.7154 26.1148 49.5977 25.0382 49.5977 23.3735Z" fill="black"/>
<path d="M60.6586 23.3735C60.6586 25.9056 59.2555 27.5325 57.1389 27.5325C56.6027 27.5596 56.0695 27.4402 55.6002 27.1881C55.131 26.936 54.7447 26.5613 54.4856 26.1069H54.4456V30.1428H52.7146V19.2989H54.3901V20.6542H54.4219C54.6929 20.202 55.0857 19.8292 55.5585 19.5755C56.0314 19.3219 56.5665 19.1968 57.107 19.2137C59.2473 19.2137 60.6586 20.8484 60.6586 23.3735ZM58.8789 23.3735C58.8789 21.7238 57.9966 20.6392 56.6504 20.6392C55.3279 20.6392 54.4383 21.7467 54.4383 23.3735C54.4383 25.0153 55.3279 26.1148 56.6504 26.1148C57.9966 26.1148 58.8789 25.0382 58.8789 23.3735Z" fill="black"/>
<path d="M66.7921 24.3325C66.9203 25.4408 68.0346 26.1685 69.5572 26.1685C71.0162 26.1685 72.0659 25.4408 72.0659 24.4415C72.0659 23.574 71.4328 23.0546 69.9338 22.6986L68.4348 22.3497C66.3109 21.854 65.3249 20.8942 65.3249 19.3368C65.3249 17.4085 67.064 16.084 69.5327 16.084C71.9777 16.084 73.6531 17.4085 73.7095 19.3368H71.9622C71.8576 18.2215 70.9034 17.5482 69.509 17.5482C68.1146 17.5482 67.1604 18.2294 67.1604 19.2208C67.1604 20.0109 67.7699 20.4759 69.2607 20.8318L70.535 21.1341C72.9082 21.6764 73.8933 22.5975 73.8933 24.2323C73.8933 26.3232 72.1705 27.6327 69.4289 27.6327C66.8639 27.6327 65.132 26.3539 65.0201 24.3325L66.7921 24.3325Z" fill="black"/>
<path d="M77.6305 17.3704V19.2987H79.2342V20.6232H77.6305V25.1153C77.6305 25.8131 77.9516 26.1383 78.6566 26.1383C78.8469 26.1351 79.037 26.1222 79.226 26.0996V27.4162C78.909 27.4734 78.5869 27.4993 78.2645 27.4935C76.5572 27.4935 75.8914 26.8739 75.8914 25.2936V20.6232H74.6653V19.2987H75.8914V17.3704H77.6305Z" fill="black"/>
<path d="M80.1622 23.3728C80.1622 20.809 81.7249 19.198 84.1617 19.198C86.6067 19.198 88.1621 20.809 88.1621 23.3728C88.1621 25.9436 86.6149 27.5476 84.1617 27.5476C81.7094 27.5476 80.1622 25.9436 80.1622 23.3728ZM86.3984 23.3728C86.3984 21.6141 85.5643 20.5761 84.1617 20.5761C82.7591 20.5761 81.925 21.622 81.925 23.3728C81.925 25.1385 82.7591 26.1686 84.1617 26.1686C85.5643 26.1686 86.3984 25.1385 86.3984 23.3728Z" fill="black"/>
<path d="M89.5891 19.2988H91.24V20.6857H91.2801C91.3918 20.2526 91.6544 19.8698 92.0238 19.6017C92.3932 19.3336 92.8468 19.1965 93.3085 19.2136C93.5079 19.2129 93.7069 19.2338 93.9015 19.276V20.8404C93.6497 20.7661 93.387 20.7319 93.1238 20.7394C92.8723 20.7295 92.6216 20.7723 92.3889 20.8649C92.1562 20.9575 91.947 21.0977 91.7756 21.2758C91.6043 21.4539 91.4748 21.6657 91.3962 21.8967C91.3176 22.1277 91.2916 22.3724 91.3201 22.6141V27.4471H89.5891L89.5891 19.2988Z" fill="black"/>
<path d="M101.882 25.0533C101.649 26.5324 100.159 27.5476 98.2512 27.5476C95.798 27.5476 94.2754 25.9594 94.2754 23.4115C94.2754 20.8556 95.8062 19.198 98.1785 19.198C100.512 19.198 101.979 20.7466 101.979 23.2172V23.7903H96.0227V23.8913C95.9952 24.1912 96.0341 24.4933 96.1367 24.7776C96.2393 25.0618 96.4034 25.3217 96.6179 25.54C96.8325 25.7583 97.0927 25.93 97.3812 26.0437C97.6697 26.1573 97.9799 26.2104 98.2912 26.1993C98.7003 26.2364 99.1108 26.1448 99.4617 25.9383C99.8125 25.7318 100.085 25.4214 100.239 25.0532L101.882 25.0533ZM96.0309 22.6213H100.247C100.262 22.3517 100.22 22.0819 100.123 21.8288C100.025 21.5757 99.8745 21.3448 99.6803 21.1506C99.4861 20.9564 99.2524 20.8031 98.994 20.7003C98.7355 20.5975 98.4579 20.5475 98.1785 20.5533C97.8966 20.5516 97.6172 20.604 97.3563 20.7072C97.0955 20.8105 96.8584 20.9627 96.6587 21.1549C96.4591 21.3472 96.3008 21.5758 96.193 21.8275C96.0853 22.0791 96.0302 22.349 96.0309 22.6213Z" fill="black"/>
<path d="M35.2323 7.8579C35.5952 7.83274 35.9594 7.88571 36.2985 8.013C36.6377 8.14029 36.9433 8.33872 37.1935 8.59398C37.4437 8.84924 37.6321 9.15497 37.7452 9.48911C37.8582 9.82326 37.8932 10.1775 37.8474 10.5262C37.8474 12.2419 36.8878 13.228 35.2323 13.228H33.2249V7.8579H35.2323ZM34.088 12.4686H35.1359C35.3952 12.4836 35.6547 12.4425 35.8955 12.3483C36.1363 12.2542 36.3524 12.1093 36.528 11.9243C36.7035 11.7393 36.8342 11.5188 36.9104 11.2788C36.9867 11.0389 37.0066 10.7855 36.9687 10.5372C37.0038 10.2898 36.9819 10.038 36.9045 9.79985C36.8271 9.56166 36.6961 9.34295 36.5209 9.15942C36.3458 8.97588 36.1307 8.83205 35.8913 8.73824C35.6518 8.64443 35.3939 8.60295 35.1359 8.61679H34.088V12.4686Z" fill="black"/>
<path d="M38.8225 11.2001C38.7961 10.9338 38.8276 10.6651 38.915 10.4112C39.0024 10.1574 39.1438 9.92398 39.33 9.726C39.5162 9.52801 39.7433 9.36982 39.9965 9.26158C40.2497 9.15333 40.5235 9.09741 40.8004 9.09741C41.0773 9.09741 41.3511 9.15333 41.6043 9.26158C41.8575 9.36982 42.0845 9.52801 42.2707 9.726C42.457 9.92398 42.5983 10.1574 42.6857 10.4112C42.7731 10.6651 42.8047 10.9338 42.7783 11.2001C42.8052 11.4667 42.774 11.7358 42.6868 11.9901C42.5996 12.2444 42.4584 12.4782 42.2721 12.6766C42.0858 12.875 41.8587 13.0335 41.6052 13.142C41.3517 13.2504 41.0776 13.3065 40.8004 13.3065C40.5232 13.3065 40.249 13.2504 39.9956 13.142C39.7421 13.0335 39.5149 12.875 39.3286 12.6766C39.1424 12.4782 39.0011 12.2444 38.9139 11.9901C38.8268 11.7358 38.7956 11.4667 38.8225 11.2001ZM41.9269 11.2001C41.9269 10.3217 41.5185 9.80797 40.8017 9.80797C40.0823 9.80797 39.6775 10.3217 39.6775 11.2002C39.6775 12.0857 40.0823 12.5954 40.8017 12.5954C41.5185 12.5954 41.9269 12.0821 41.9269 11.2001Z" fill="black"/>
<path d="M48.0368 13.2284H47.1782L46.3114 10.2436H46.2459L45.3827 13.2284H44.5322L43.3761 9.17578H44.2157L44.967 12.2682H45.0288L45.8911 9.17578H46.6852L47.5475 12.2682H47.613L48.3607 9.17578H49.1884L48.0368 13.2284Z" fill="black"/>
<path d="M50.1603 9.17499H50.9571V9.81879H51.0189C51.1239 9.58756 51.3008 9.39372 51.5252 9.2643C51.7495 9.13487 52.0101 9.07631 52.2705 9.09676C52.4746 9.08194 52.6795 9.11167 52.8701 9.18376C53.0607 9.25584 53.232 9.36843 53.3714 9.51319C53.5108 9.65795 53.6148 9.83117 53.6755 10.02C53.7362 10.2088 53.7522 10.4085 53.7222 10.6041V13.2276H52.8945V10.8049C52.8945 10.1537 52.6016 9.82978 51.9895 9.82978C51.8509 9.82354 51.7126 9.84633 51.584 9.89657C51.4554 9.94682 51.3396 10.0233 51.2445 10.1209C51.1494 10.2184 51.0772 10.3347 51.0329 10.4617C50.9887 10.5887 50.9733 10.7235 50.988 10.8568V13.2276H50.1603L50.1603 9.17499Z" fill="black"/>
<path d="M55.0411 7.59326H55.8689V13.2279H55.0411V7.59326Z" fill="black"/>
<path d="M57.0197 11.2002C56.9934 10.9339 57.0249 10.6652 57.1123 10.4113C57.1998 10.1574 57.3411 9.924 57.5274 9.72601C57.7136 9.52802 57.9407 9.36983 58.1939 9.26158C58.4471 9.15333 58.7209 9.09741 58.9978 9.09741C59.2747 9.09741 59.5486 9.15333 59.8018 9.26158C60.055 9.36983 60.2821 9.52802 60.4683 9.72601C60.6546 9.924 60.7959 10.1574 60.8834 10.4113C60.9708 10.6652 61.0023 10.9339 60.976 11.2002C61.0028 11.4668 60.9716 11.7359 60.8844 11.9902C60.7972 12.2445 60.6559 12.4783 60.4696 12.6767C60.2833 12.875 60.0562 13.0335 59.8027 13.142C59.5492 13.2505 59.2751 13.3065 58.9978 13.3065C58.7206 13.3065 58.4465 13.2505 58.193 13.142C57.9395 13.0335 57.7123 12.875 57.526 12.6767C57.3398 12.4783 57.1985 12.2445 57.1113 11.9902C57.0241 11.7359 56.9929 11.4668 57.0197 11.2002ZM60.1241 11.2002C60.1241 10.3218 59.7157 9.80804 58.999 9.80804C58.2795 9.80804 57.8748 10.3218 57.8748 11.2002C57.8748 12.0857 58.2795 12.5955 58.999 12.5955C59.7157 12.5955 60.1241 12.0822 60.1241 11.2002Z" fill="black"/>
<path d="M61.8473 12.0822C61.8473 11.3527 62.4094 10.9321 63.4072 10.8724L64.5433 10.8091V10.4593C64.5433 10.0312 64.2504 9.78955 63.6847 9.78955C63.2226 9.78955 62.9024 9.95346 62.8105 10.24H62.0092C62.0938 9.54389 62.7714 9.09741 63.7229 9.09741C64.7744 9.09741 65.3674 9.60321 65.3674 10.4593V13.2283H64.5706V12.6587H64.5051C64.3722 12.863 64.1855 13.0296 63.9642 13.1414C63.7429 13.2531 63.4948 13.3062 63.2453 13.295C63.0693 13.3127 62.8913 13.2946 62.7229 13.2417C62.5546 13.1889 62.3995 13.1026 62.2678 12.9883C62.1361 12.874 62.0306 12.7344 61.9582 12.5783C61.8858 12.4222 61.848 12.2532 61.8473 12.0822ZM64.5433 11.7359V11.3971L63.5191 11.4603C62.9415 11.4977 62.6796 11.6875 62.6796 12.0448C62.6796 12.4095 63.007 12.6218 63.4573 12.6218C63.5892 12.6347 63.7225 12.6218 63.8492 12.584C63.9759 12.5461 64.0934 12.484 64.1947 12.4013C64.296 12.3186 64.3791 12.2171 64.439 12.1028C64.4989 11.9885 64.5344 11.8637 64.5433 11.7359Z" fill="black"/>
<path d="M66.4554 11.1999C66.4554 9.91929 67.1367 9.10806 68.1964 9.10806C68.4585 9.09639 68.7187 9.15706 68.9464 9.28296C69.1742 9.40887 69.3601 9.59481 69.4826 9.81906H69.5444V7.59326H70.3721V13.2279H69.579V12.5876H69.5135C69.3816 12.8104 69.1892 12.994 68.957 13.1186C68.7248 13.2433 68.4618 13.3042 68.1964 13.2947C67.1295 13.2947 66.4554 12.4835 66.4554 11.1999ZM67.3105 11.1999C67.3105 12.0594 67.7298 12.5767 68.4311 12.5767C69.1288 12.5767 69.5599 12.052 69.5599 11.2034C69.5599 10.3587 69.1242 9.82657 68.4311 9.82657C67.7343 9.82657 67.3105 10.3473 67.3105 11.1999Z" fill="black"/>
<path d="M73.7966 11.2001C73.7702 10.9338 73.8017 10.6651 73.8892 10.4112C73.9766 10.1574 74.1179 9.92398 74.3041 9.726C74.4904 9.52801 74.7174 9.36982 74.9706 9.26158C75.2238 9.15333 75.4976 9.09741 75.7745 9.09741C76.0514 9.09741 76.3252 9.15333 76.5784 9.26158C76.8316 9.36982 77.0586 9.52801 77.2448 9.726C77.4311 9.92398 77.5724 10.1574 77.6598 10.4112C77.7472 10.6651 77.7788 10.9338 77.7524 11.2001C77.7793 11.4667 77.7481 11.7358 77.6609 11.9901C77.5738 12.2444 77.4325 12.4782 77.2462 12.6766C77.0599 12.875 76.8328 13.0335 76.5793 13.142C76.3259 13.2504 76.0517 13.3065 75.7745 13.3065C75.4973 13.3065 75.2231 13.2504 74.9697 13.142C74.7162 13.0335 74.489 12.875 74.3028 12.6766C74.1165 12.4782 73.9752 12.2444 73.888 11.9901C73.8009 11.7358 73.7697 11.4667 73.7966 11.2001ZM76.901 11.2001C76.901 10.3217 76.4926 9.80797 75.7759 9.80797C75.0564 9.80797 74.6516 10.3217 74.6516 11.2002C74.6516 12.0857 75.0564 12.5954 75.7759 12.5954C76.4926 12.5954 76.901 12.0821 76.901 11.2001Z" fill="black"/>
<path d="M78.8629 9.17499H79.6597V9.81879H79.7216C79.8265 9.58756 80.0035 9.39372 80.2278 9.2643C80.4522 9.13487 80.7127 9.07631 80.9732 9.09676C81.1773 9.08194 81.3822 9.11167 81.5727 9.18376C81.7633 9.25584 81.9346 9.36843 82.0741 9.51319C82.2135 9.65795 82.3174 9.83117 82.3781 10.02C82.4389 10.2088 82.4548 10.4085 82.4249 10.6041V13.2276H81.5972V10.8049C81.5972 10.1537 81.3043 9.82978 80.6921 9.82978C80.5536 9.82354 80.4152 9.84633 80.2866 9.89657C80.1581 9.94682 80.0422 10.0233 79.9471 10.1209C79.852 10.2184 79.7798 10.3347 79.7356 10.4617C79.6913 10.5887 79.676 10.7235 79.6906 10.8568V13.2276H78.8629V9.17499Z" fill="black"/>
<path d="M87.102 8.16602V9.19345H88.0107V9.86714H87.102V11.951C87.102 12.3755 87.283 12.5614 87.6951 12.5614C87.8005 12.5611 87.9059 12.5549 88.0107 12.543V13.2092C87.862 13.2349 87.7114 13.2485 87.5604 13.25C86.6399 13.25 86.2734 12.9371 86.2734 12.1558V9.8671H85.6075V9.19342H86.2734V8.16602H87.102Z" fill="black"/>
<path d="M89.1416 7.59326H89.9621V9.82656H90.0275C90.1376 9.59317 90.3194 9.39824 90.5483 9.26833C90.7771 9.13842 91.0418 9.07984 91.3064 9.10059C91.5094 9.08991 91.7123 9.12266 91.9008 9.1965C92.0892 9.27034 92.2584 9.38344 92.3963 9.52775C92.5343 9.67205 92.6376 9.844 92.6989 10.0313C92.7602 10.2186 92.7779 10.4167 92.7508 10.6114V13.2279H91.9223V10.8087C91.9223 10.1614 91.6102 9.83358 91.0254 9.83358C90.8831 9.82231 90.74 9.8412 90.6061 9.88895C90.4722 9.9367 90.3507 10.0121 90.2501 10.11C90.1495 10.2079 90.0723 10.3258 90.0238 10.4555C89.9753 10.5852 89.9567 10.7236 89.9694 10.861V13.2279H89.1416L89.1416 7.59326Z" fill="black"/>
<path d="M97.5775 12.1341C97.465 12.5045 97.2214 12.8249 96.8891 13.0392C96.5569 13.2535 96.1573 13.3482 95.7601 13.3065C95.4838 13.3136 95.2092 13.2625 94.9554 13.1567C94.7016 13.0509 94.4746 12.893 94.2903 12.694C94.106 12.495 93.9686 12.2596 93.8879 12.0041C93.8072 11.7487 93.7849 11.4793 93.8227 11.2148C93.7859 10.9494 93.8085 10.6794 93.8891 10.4232C93.9697 10.167 94.1062 9.93053 94.2896 9.72976C94.473 9.529 94.6988 9.36864 94.9519 9.25956C95.205 9.15047 95.4794 9.0952 95.7565 9.09748C96.9235 9.09748 97.6275 9.86788 97.6275 11.1405V11.4196H94.6659V11.4644C94.6529 11.6131 94.6723 11.7628 94.7227 11.9039C94.7731 12.0449 94.8535 12.1743 94.9586 12.2836C95.0638 12.3929 95.1914 12.4798 95.3334 12.5386C95.4753 12.5975 95.6284 12.627 95.7829 12.6254C95.9809 12.6483 96.1815 12.6139 96.3591 12.5264C96.5368 12.4389 96.6835 12.3023 96.7807 12.1341L97.5775 12.1341ZM94.6659 10.828H96.7843C96.7947 10.692 96.7756 10.5554 96.7281 10.427C96.6807 10.2985 96.6059 10.1811 96.5087 10.0822C96.4115 9.98334 96.2939 9.90522 96.1636 9.85286C96.0333 9.8005 95.893 9.77507 95.7519 9.77819C95.6088 9.77645 95.4667 9.80243 95.3341 9.85458C95.2015 9.90673 95.081 9.984 94.9798 10.0818C94.8786 10.1797 94.7987 10.2961 94.7448 10.4243C94.6908 10.5524 94.664 10.6897 94.6659 10.828Z" fill="black"/>
</svg>
